<?xml version="1.0" encoding="UTF-8"?>
<svg id="_レイヤー_1" data-name="レイヤー 1" xmlns="http://www.w3.org/2000/svg" viewBox="0 0 512 512">
  <rect x="-2.5" y="-2.5" width="517" height="517" fill="#ededed" stroke-width="0"/>
  <g>
    <path d="M231.39,184.38c0,26.39,23.87,41.47,39.58,50.89,40.84,26.39,57.17,42.09,57.17,74.14,0,27.64-20.1,44.61-32.67,52.78-13.82,8.8-35.18,13.82-50.26,13.82-16.33,0-30.79-3.77-49.63-11.31-5.03-1.88-9.42-6.28-9.42-10.05,0-8.8-1.26-24.5-1.88-31.41-1.26-8.17.63-10.05,1.88-10.05,1.88,0,3.77,0,8.17,11.94,5.03,15.71,15.08,27.02,26.39,33.93,9.42,6.28,18.85,7.54,28.27,7.54,17.59,0,40.84-16.33,40.84-42.09,0-23.87-16.33-37.07-41.47-52.78-27.02-17.59-52.15-40.84-52.15-68.48,0-22.62,10.05-39.58,23.87-49.63,11.31-9.42,29.53-17.59,52.78-17.59,16.96,0,35.18,4.4,42.72,6.91,1.26,1.26,3.14,3.77,3.14,5.65.63,6.91,3.14,19.48,3.77,29.53,0,6.91-1.26,10.05-3.14,10.05-2.51,0-3.77-3.14-5.65-7.54-3.14-9.42-5.65-18.22-15.08-25.76-6.91-5.03-17.59-9.42-29.53-9.42-20.1,0-37.7,13.82-37.7,38.95Z" fill="#fff" stroke-width="0"/>
    <g>
      <path d="M256,466c-56.09,0-108.83-21.84-148.49-61.51-39.66-39.66-61.51-92.4-61.51-148.49s21.84-108.83,61.51-148.49c39.66-39.66,92.4-61.51,148.49-61.51s108.83,21.84,148.49,61.51c39.66,39.66,61.51,92.4,61.51,148.49s-21.84,108.83-61.51,148.49c-39.66,39.66-92.4,61.51-148.49,61.51ZM256,54.94c-53.71,0-104.2,20.91-142.17,58.89-37.98,37.98-58.89,88.47-58.89,142.17s20.91,104.2,58.89,142.17c37.98,37.98,88.47,58.89,142.17,58.89s104.2-20.91,142.17-58.89c37.98-37.98,58.89-88.47,58.89-142.17s-20.91-104.2-58.89-142.17c-37.98-37.98-88.47-58.89-142.17-58.89Z" fill="#fff" stroke-width="0"/>
      <path d="M256,70.42c25.06,0,49.36,4.91,72.24,14.58,22.1,9.35,41.95,22.73,58.99,39.77,17.04,17.04,30.43,36.89,39.77,58.99,9.68,22.88,14.58,47.18,14.58,72.24s-4.91,49.36-14.58,72.24c-9.35,22.1-22.73,41.95-39.77,58.99-17.04,17.04-36.89,30.43-58.99,39.77-22.88,9.68-47.18,14.58-72.24,14.58s-49.36-4.91-72.24-14.58c-22.1-9.35-41.95-22.73-58.99-39.77-17.04-17.04-30.43-36.89-39.77-58.99-9.68-22.88-14.58-47.18-14.58-72.24s4.91-49.36,14.58-72.24c9.35-22.1,22.73-41.95,39.77-58.99,17.04-17.04,36.89-30.43,58.99-39.77,22.88-9.68,47.18-14.58,72.24-14.58M256,66c-104.93,0-190,85.07-190,190s85.07,190,190,190,190-85.07,190-190-85.07-190-190-190h0Z" fill="#fff" opacity=".5" stroke-width="0"/>
    </g>
  </g>
  <g>
    <path d="M231.39,190.38c0,26.39,23.87,41.47,39.58,50.89,40.84,26.39,57.17,42.09,57.17,74.14,0,27.64-20.1,44.61-32.67,52.78-13.82,8.8-35.18,13.82-50.26,13.82-16.33,0-30.79-3.77-49.63-11.31-5.03-1.88-9.42-6.28-9.42-10.05,0-8.8-1.26-24.5-1.88-31.41-1.26-8.17.63-10.05,1.88-10.05,1.88,0,3.77,0,8.17,11.94,5.03,15.71,15.08,27.02,26.39,33.93,9.42,6.28,18.85,7.54,28.27,7.54,17.59,0,40.84-16.33,40.84-42.09,0-23.87-16.33-37.07-41.47-52.78-27.02-17.59-52.15-40.84-52.15-68.48,0-22.62,10.05-39.58,23.87-49.63,11.31-9.42,29.53-17.59,52.78-17.59,16.96,0,35.18,4.4,42.72,6.91,1.26,1.26,3.14,3.77,3.14,5.65.63,6.91,3.14,19.48,3.77,29.53,0,6.91-1.26,10.05-3.14,10.05-2.51,0-3.77-3.14-5.65-7.54-3.14-9.42-5.65-18.22-15.08-25.76-6.91-5.03-17.59-9.42-29.53-9.42-20.1,0-37.7,13.82-37.7,38.95Z" fill="#1f2126" stroke-width="0"/>
    <g>
      <path d="M256,472c-56.09,0-108.83-21.84-148.49-61.51-39.66-39.66-61.51-92.4-61.51-148.49s21.84-108.83,61.51-148.49c39.66-39.66,92.4-61.51,148.49-61.51s108.83,21.84,148.49,61.51c39.66,39.66,61.51,92.4,61.51,148.49s-21.84,108.83-61.51,148.49c-39.66,39.66-92.4,61.51-148.49,61.51ZM256,60.94c-53.71,0-104.2,20.91-142.17,58.89-37.98,37.98-58.89,88.47-58.89,142.17s20.91,104.2,58.89,142.17c37.98,37.98,88.47,58.89,142.17,58.89s104.2-20.91,142.17-58.89c37.98-37.98,58.89-88.47,58.89-142.17s-20.91-104.2-58.89-142.17c-37.98-37.98-88.47-58.89-142.17-58.89Z" fill="#1f2126" stroke-width="0"/>
      <path d="M256,76.42c25.06,0,49.36,4.91,72.24,14.58,22.1,9.35,41.95,22.73,58.99,39.77,17.04,17.04,30.43,36.89,39.77,58.99,9.68,22.88,14.58,47.18,14.58,72.24s-4.91,49.36-14.58,72.24c-9.35,22.1-22.73,41.95-39.77,58.99-17.04,17.04-36.89,30.43-58.99,39.77-22.88,9.68-47.18,14.58-72.24,14.58s-49.36-4.91-72.24-14.58c-22.1-9.35-41.95-22.73-58.99-39.77-17.04-17.04-30.43-36.89-39.77-58.99-9.68-22.88-14.58-47.18-14.58-72.24s4.91-49.36,14.58-72.24c9.35-22.1,22.73-41.95,39.77-58.99,17.04-17.04,36.89-30.43,58.99-39.77,22.88-9.68,47.18-14.58,72.24-14.58M256,72c-104.93,0-190,85.07-190,190s85.07,190,190,190,190-85.07,190-190-85.07-190-190-190h0Z" fill="#1f2126" opacity=".5" stroke-width="0"/>
    </g>
  </g>
</svg>