<?xml version="1.0" encoding="UTF-8"?>
<svg id="_レイヤー_1" data-name="レイヤー 1" xmlns="http://www.w3.org/2000/svg" viewBox="0 0 512 512">
  <path class="cls-1" d="M225.44,167.05c0,32.77,29.65,51.5,49.16,63.2,50.72,32.77,71.01,52.28,71.01,92.07,0,34.33-24.97,55.4-40.57,65.54-17.17,10.92-43.7,17.17-62.42,17.17-20.29,0-38.23-4.68-61.64-14.04-6.24-2.34-11.7-7.8-11.7-12.48,0-10.92-1.56-30.43-2.34-39.01-1.56-10.14.78-12.48,2.34-12.48,2.34,0,4.68,0,10.14,14.83,6.24,19.51,18.73,33.55,32.77,42.14,11.7,7.8,23.41,9.36,35.11,9.36,21.85,0,50.72-20.29,50.72-52.28,0-29.65-20.29-46.04-51.5-65.54-33.55-21.85-64.76-50.72-64.76-85.05,0-28.09,12.48-49.16,29.65-61.64,14.05-11.7,36.67-21.85,65.54-21.85,21.07,0,43.7,5.46,53.06,8.58,1.56,1.56,3.9,4.68,3.9,7.02.78,8.58,3.9,24.19,4.68,36.67,0,8.58-1.56,12.48-3.9,12.48-3.12,0-4.68-3.9-7.02-9.36-3.9-11.7-7.02-22.63-18.73-31.99-8.58-6.24-21.85-11.7-36.67-11.7-24.97,0-46.82,17.17-46.82,48.38Z"/>
</svg>